<svg width="37" height="37" viewBox="0 0 37 37" fill="none" xmlns="http://www.w3.org/2000/svg">
<path d="M28.1196 36.0105C20.7708 36.001 13.7258 33.0785 8.52942 27.884C3.33306 22.6894 0.40955 15.6468 0.400024 8.30062C0.400024 6.10543 1.27237 4.00015 2.82514 2.44791C4.37792 0.89568 6.48394 0.0236432 8.6799 0.0236432C9.14491 0.0201024 9.60914 0.06229 10.0659 0.149597C10.5074 0.214914 10.9415 0.323395 11.3619 0.473479C11.6575 0.577174 11.9209 0.756216 12.1261 0.992899C12.3313 1.22958 12.4712 1.51571 12.5318 1.82299L14.9978 12.619C15.0643 12.9121 15.0563 13.2171 14.9745 13.5063C14.8928 13.7954 14.7399 14.0595 14.5298 14.2744C14.2958 14.5264 14.2778 14.5443 12.0639 15.6959C13.8368 19.584 16.9475 22.7064 20.8297 24.4947C21.9997 22.2635 22.0177 22.2455 22.2697 22.0116C22.4847 21.8016 22.7489 21.6488 23.0381 21.5671C23.3274 21.4853 23.6325 21.4773 23.9257 21.5438L34.7255 24.0089C35.0231 24.0779 35.2981 24.2215 35.5249 24.4261C35.7516 24.6307 35.9225 24.8896 36.0215 25.1785C36.1734 25.6056 36.2878 26.045 36.3635 26.492C36.4359 26.9442 36.472 27.4015 36.4715 27.8595C36.4383 30.0453 35.5414 32.1292 33.9767 33.6563C32.4119 35.1835 30.3064 36.0298 28.1196 36.0105Z" fill="#A8ADB0"/>
</svg>
