<svg width="32" height="37" viewBox="0 0 32 37" fill="none" xmlns="http://www.w3.org/2000/svg">
<path d="M30.7407 11.7852C28.8962 3.67484 21.8171 0.0234375 15.5987 0.0234375C15.5987 0.0234375 15.5987 0.0234375 15.5811 0.0234375C9.38025 0.0234375 2.28355 3.65729 0.439114 11.7676C-1.61612 20.8259 3.93476 28.4974 8.95866 33.3249C10.8207 35.1155 13.2097 36.0108 15.5987 36.0108C17.9877 36.0108 20.3767 35.1155 22.2211 33.3249C27.245 28.4974 32.7959 20.8435 30.7407 11.7852ZM15.5987 20.5801C12.5422 20.5801 10.0653 18.1049 10.0653 15.0504C10.0653 11.9958 12.5422 9.5206 15.5987 9.5206C18.6552 9.5206 21.132 11.9958 21.132 15.0504C21.132 18.1049 18.6552 20.5801 15.5987 20.5801Z" fill="#A8ADB0"/>
</svg>
