<svg width="39" height="37" viewBox="0 0 39 37" fill="none" xmlns="http://www.w3.org/2000/svg">
<path fill-rule="evenodd" clip-rule="evenodd" d="M9 0.0234375C4.02944 0.0234375 0 4.05288 0 9.02344V27.0234C0 31.994 4.02944 36.0234 9 36.0234H14.2405V20.0138H12C11.4477 20.0138 11 19.5661 11 19.0138V15.6282C11 15.076 11.4477 14.6282 12 14.6282H14.2405V10.2218C14.2405 10.2055 14.2404 10.1874 14.2403 10.1674C14.2368 9.1998 14.2177 4.02344 21.0654 4.02344H25C25.5523 4.02344 26 4.47115 26 5.02344V8.63304C26 9.18532 25.5523 9.63304 25 9.63304H22.3738C21.6537 9.63304 20.9271 10.3722 20.9271 10.9258V14.6058H24.9193C25.4998 14.6058 25.9588 15.0986 25.9062 15.6767C25.7763 17.1032 25.6089 18.3808 25.496 19.1737C25.4269 19.659 25.0099 20.0138 24.5198 20.0138H20.9014V36.0234H30C34.9706 36.0234 39 31.994 39 27.0234V9.02344C39 4.05288 34.9706 0.0234375 30 0.0234375H9Z" fill="#A8ADB0"/>
</svg>
