<svg width="36" height="37" viewBox="0 0 36 37" fill="none" xmlns="http://www.w3.org/2000/svg">
<path d="M25.5494 0.0234375H10.461C3.90714 0.0234375 0 3.92807 0 10.4778V25.5385C0 32.1062 3.90714 36.0108 10.461 36.0108H25.5314C32.0853 36.0108 35.9925 32.1062 35.9925 25.5565V10.4778C36.0105 3.92807 32.1033 0.0234375 25.5494 0.0234375ZM18.0052 24.9987C14.1521 24.9987 11.0192 21.8678 11.0192 18.0171C11.0192 14.1665 14.1521 11.0356 18.0052 11.0356C21.8584 11.0356 24.9913 14.1665 24.9913 18.0171C24.9913 21.8678 21.8584 24.9987 18.0052 24.9987ZM28.6643 8.80436C28.5743 9.02029 28.4483 9.21822 28.2862 9.39815C28.1062 9.5601 27.9081 9.68605 27.692 9.77602C27.476 9.86599 27.2419 9.91997 27.0079 9.91997C26.5217 9.91997 26.0716 9.74003 25.7295 9.39815C25.5674 9.21822 25.4414 9.02029 25.3514 8.80436C25.2613 8.58844 25.2073 8.35452 25.2073 8.1206C25.2073 7.88668 25.2613 7.65277 25.3514 7.43684C25.4414 7.20292 25.5674 7.02299 25.7295 6.84305C26.1436 6.42919 26.7738 6.23126 27.35 6.35722C27.476 6.37521 27.584 6.4112 27.692 6.46518C27.8001 6.50117 27.9081 6.55515 28.0161 6.62712C28.1062 6.68111 28.1962 6.77107 28.2862 6.84305C28.4483 7.02299 28.5743 7.20292 28.6643 7.43684C28.7544 7.65277 28.8084 7.88668 28.8084 8.1206C28.8084 8.35452 28.7544 8.58844 28.6643 8.80436Z" fill="#A8ADB0"/>
</svg>
