<svg width="37" height="37" viewBox="0 0 37 37" fill="none" xmlns="http://www.w3.org/2000/svg">
<path d="M24.3068 10.8199C22.7735 10.8146 21.2542 11.1116 19.8358 11.6937C18.4174 12.2759 17.1278 13.1318 16.0408 14.2126C14.9538 15.2933 14.0907 16.5777 13.5009 17.9921C12.9111 19.4065 12.6061 20.9233 12.6035 22.4557V34.2114C12.6035 34.6887 12.7932 35.1463 13.1309 35.4838C13.4685 35.8212 13.9265 36.0108 14.404 36.0108H18.6052C19.0827 36.0108 19.5407 35.8212 19.8783 35.4838C20.216 35.1463 20.4057 34.6887 20.4057 34.2114V22.4557C20.4053 21.9107 20.5198 21.3717 20.7419 20.8739C20.9639 20.3761 21.2884 19.9307 21.6942 19.5666C22.1 19.2025 22.5781 18.928 23.0972 18.761C23.6163 18.5939 24.1648 18.5381 24.7069 18.5971C25.6792 18.7195 26.5727 19.1942 27.218 19.9312C27.8633 20.6683 28.2156 21.6163 28.2079 22.5956V34.2114C28.2079 34.6887 28.3976 35.1463 28.7352 35.4838C29.0729 35.8212 29.5309 36.0108 30.0084 36.0108H34.2096C34.6871 36.0108 35.145 35.8212 35.4827 35.4838C35.8204 35.1463 36.0101 34.6887 36.0101 34.2114V22.4557C36.0074 20.9233 35.7025 19.4065 35.1127 17.9921C34.5229 16.5777 33.6598 15.2933 32.5728 14.2126C31.4857 13.1318 30.1962 12.2759 28.7778 11.6937C27.3594 11.1116 25.8401 10.8146 24.3068 10.8199Z" fill="#A8ADB0"/>
<path d="M7.20201 12.6189H1.8005C0.806113 12.6189 0 13.4245 0 14.4182V34.2111C0 35.2048 0.806113 36.0104 1.8005 36.0104H7.20201C8.1964 36.0104 9.00252 35.2048 9.00252 34.2111V14.4182C9.00252 13.4245 8.1964 12.6189 7.20201 12.6189Z" fill="#A8ADB0"/>
<path d="M4.50126 9.02019C6.98724 9.02019 9.00252 7.0062 9.00252 4.52181C9.00252 2.03743 6.98724 0.0234375 4.50126 0.0234375C2.01528 0.0234375 0 2.03743 0 4.52181C0 7.0062 2.01528 9.02019 4.50126 9.02019Z" fill="#A8ADB0"/>
</svg>
