<?xml version="1.0" encoding="UTF-8"?>
<svg id="Capa_2" data-name="Capa 2" xmlns="http://www.w3.org/2000/svg" viewBox="0 0 55.64 55.61">
  <defs>
    <style>
      .cls-1 {
        fill: #0c2340;
        stroke-width: 0px;
      }
    </style>
  </defs>
  <g id="IT_Support_Services" data-name="IT Support Services">
    <g>
      <path class="cls-1" d="m34.19,10.73l-.19.24c-.38.49-.76.98-1.15,1.45-2.64-.04-5.29.14-7.89.55-3.68.59-7.23,1.63-10.57,3.1-1.13-1.05-2.49-1.58-4.05-1.58h-.21c-.13-.62-.26-1.2-.32-1.78-.22-1.88-.37-3.8-.51-5.6C13.67,3.22,18.81.89,24.58.2c.41-.05.82-.1,1.22-.15l.4-.05h1.58l.37.47c.46.59.92,1.19,1.37,1.79,1.86,2.56,3.43,5.4,4.67,8.47Z"/>
      <path class="cls-1" d="m4.35,22.09c-1.56,1.26-3.01,2.59-4.35,3.98.04-.28.08-.57.11-.85.09-.75.18-1.49.31-2.23.77-4.32,2.48-8.27,5.08-11.74.01.06.02.13.03.19.24,1.52.51,3.03.79,4.54"/>
      <path class="cls-1" d="m48.69,46.25c-.1.12-.12.14-.31.13-2.8-.08-5.58-.45-8.26-1.09-.03-.43-.07-.88-.15-1.33-.21-1.07-.74-2.05-1.55-2.83,2.36-6.37,3.21-12.99,2.52-19.71-.04-.38-.02-.5-.01-.52,0,0,.05-.06.25-.16,1.03-.48,1.83-1.31,2.42-2.51,3.59,1.07,6.88,2.59,10.03,4.62.24.15.48.32.72.49.33.23.67.47,1.05.7,0,0,.02.04.03.16.94,8.29-1.32,15.71-6.74,22.05Z"/>
      <path class="cls-1" d="m14.96,41.04c-.92,3.44-1.42,6.93-1.52,10.61-.48-.3-.94-.59-1.38-.89C5.65,46.23,1.7,39.98.32,32.2c-.03-.21-.02-.31.16-.53,1.77-2.21,4.11-4.56,6.12-6.15,1.07.83,2.23,1.24,3.43,1.21.15,0,.19.02.19.02.06.04.22.3.27.39.83,1.4,1.69,2.79,2.56,4.19l.62,1.01c-1.02,1.32-1.43,2.87-1.21,4.54.23,1.73,1.07,3.12,2.5,4.16Z"/>
      <path class="cls-1" d="m36.94,29.64c-.31,3.27-1.04,6.51-2.15,9.62-2.03-.24-3.79.38-5.23,1.86-1.72-.97-3.39-2.11-5.08-3.44.52-2.1.06-4.03-1.33-5.65,2.82-4.7,6.49-8.73,10.92-11.97.83.72,1.77,1.19,2.8,1.42.31,2.71.33,5.45.07,8.16Z"/>
      <path class="cls-1" d="m29.43,49.41c-.12.15-.24.31-.36.46-.67.84-1.35,1.71-2.06,2.52-.78.88-1.66,1.73-2.5,2.56l-.46.45c-2.26-.3-4.44-.87-6.53-1.71-.11-3.9.35-7.77,1.37-11.49,1.43-.14,2.15-.38,3.19-1.11l.57.36c1.77,1.14,3.5,2.25,5.22,3.37-.14,1.7.39,3.24,1.56,4.59Z"/>
      <path class="cls-1" d="m32.09,16.46c-2.6,1.87-4.99,4-7.11,6.32-2.07,2.28-3.87,4.72-5.37,7.29-.59-.04-1.16-.01-1.7.03l-.72.03c-1.14-1.51-2.14-3.07-3.04-4.74,1.8-1.52,2.56-3.5,2.21-5.78,3.13-1.59,10.65-3.19,14.75-3.19.36,0,.68.02.98.04Z"/>
      <path class="cls-1" d="m48.55,9.3c-2.04.57-4.08,1.16-6.18,1.78-1.16-1.13-2.59-1.73-4.21-1.73-.05,0-.11,0-.16.01-1.21-3.07-2.79-6.02-4.71-8.8,6.05,1.26,11.08,4.14,15.26,8.74Z"/>
      <path class="cls-1" d="m44.42,50.16c-2.14,1.61-4.45,2.86-6.99,3.8-2.53.93-5.12,1.48-7.86,1.65.49-.55.97-1.09,1.44-1.65.66-.79,1.27-1.62,1.86-2.42l.12-.16c2.28.38,4.28-.39,5.81-2.21,1.89.45,3.74.77,5.62.99Z"/>
      <path class="cls-1" d="m53.97,18.31c-1.13-.63-2.3-1.26-3.51-1.8-1.77-.79-3.62-1.43-5.47-2.06,1.04-.31,2.11-.64,3.18-.92.96-.25,1.99-.43,2.98-.6l.13-.02c1.1,1.69,2,3.49,2.69,5.4Z"/>
      <path class="cls-1" d="m12.4,20.64c0,.58-.23,1.09-.6,1.47-.38.37-.9.6-1.48.6-1.15,0-2.09-.93-2.1-2.07,0-.56.21-1.08.61-1.48.39-.39.92-.61,1.49-.61h.01c1.17.01,2.08.93,2.07,2.09Z"/>
      <path class="cls-1" d="m40.22,15.48c0,1.13-.96,2.09-2.09,2.09h-.01c-.55,0-1.07-.21-1.47-.61-.4-.41-.62-.94-.62-1.5.01-1.14.95-2.06,2.1-2.06h.01c1.14,0,2.08.94,2.08,2.08Z"/>
      <path class="cls-1" d="m20.64,36.06c0,1.17-.91,2.09-2.07,2.1-.55,0-1.08-.2-1.49-.6-.4-.41-.62-.93-.62-1.49,0-1.14.94-2.07,2.09-2.07h.01c.58,0,1.1.23,1.47.6.37.37.61.89.61,1.46Z"/>
      <path class="cls-1" d="m36.08,45.33v.02c0,.58-.24,1.1-.62,1.48-.37.38-.89.61-1.46.61-1.13,0-2.08-.95-2.09-2.08,0-.56.22-1.09.62-1.49.39-.39.92-.61,1.48-.61h0c1.13,0,2.06.93,2.06,2.07Z"/>
    </g>
  </g>
</svg>