<?xml version="1.0" encoding="UTF-8"?>
<svg id="Capa_2" data-name="Capa 2" xmlns="http://www.w3.org/2000/svg" viewBox="0 0 62.67 55.82">
  <defs>
    <style>
      .cls-1 {
        fill: #0c2340;
        stroke-width: 0px;
      }
    </style>
  </defs>
  <g id="IT_Support_Services" data-name="IT Support Services">
    <g id="_2-database" data-name="2-database">
      <g>
        <path class="cls-1" d="m16.03,8.25c0,1.5-1.21,2.72-2.71,2.72s-2.71-1.22-2.71-2.72,1.21-2.71,2.71-2.71,2.71,1.21,2.71,2.71Z"/>
        <path class="cls-1" d="m48.09,0H8.25C5.97,0,3.91.92,2.41,2.42.92,3.91,0,5.98,0,8.25c0,4.56,3.69,8.25,8.25,8.25h39.84c2.28,0,4.35-.92,5.83-2.42,1.5-1.5,2.42-3.56,2.42-5.83,0-4.55-3.7-8.25-8.25-8.25ZM13.32,13.31c-2.79,0-5.06-2.27-5.06-5.07s2.27-5.06,5.06-5.06,5.06,2.27,5.06,5.06-2.27,5.07-5.06,5.07Zm12.37,0c-2.79,0-5.06-2.27-5.06-5.07s2.27-5.06,5.06-5.06,5.06,2.27,5.06,5.06-2.26,5.07-5.06,5.07Zm0-7.78c-1.5,0-2.71,1.21-2.71,2.71s1.21,2.72,2.71,2.72,2.71-1.22,2.71-2.72-1.21-2.71-2.71-2.71Z"/>
      </g>
      <g>
        <path class="cls-1" d="m28.41,27.91c0,1.5-1.21,2.71-2.71,2.71s-2.71-1.21-2.71-2.71,1.21-2.71,2.71-2.71,2.71,1.21,2.71,2.71Z"/>
        <path class="cls-1" d="m13.32,25.2c-1.5,0-2.71,1.21-2.71,2.71s1.21,2.71,2.71,2.71,2.71-1.21,2.71-2.71-1.21-2.71-2.71-2.71Zm0,0c-1.5,0-2.71,1.21-2.71,2.71s1.21,2.71,2.71,2.71,2.71-1.21,2.71-2.71-1.21-2.71-2.71-2.71Zm0,0c-1.5,0-2.71,1.21-2.71,2.71s1.21,2.71,2.71,2.71,2.71-1.21,2.71-2.71-1.21-2.71-2.71-2.71Zm0,0c-1.5,0-2.71,1.21-2.71,2.71s1.21,2.71,2.71,2.71,2.71-1.21,2.71-2.71-1.21-2.71-2.71-2.71Zm34.76-5.54H8.25c-2.28,0-4.34.92-5.83,2.41-1.49,1.5-2.41,3.56-2.41,5.83,0,4.56,3.69,8.25,8.25,8.25h32.62c2.46-3.16,6.3-5.18,10.61-5.18,1.39,0,2.74.21,4,.6.55-1.1.86-2.35.86-3.67,0-4.56-3.7-8.25-8.25-8.25Zm-34.76,13.31c-2.79,0-5.06-2.27-5.06-5.06s2.27-5.06,5.06-5.06,5.06,2.27,5.06,5.06-2.27,5.06-5.06,5.06Zm12.37,0c-2.79,0-5.06-2.27-5.06-5.06s2.27-5.06,5.06-5.06,5.06,2.27,5.06,5.06-2.26,5.06-5.06,5.06Zm-12.37-7.77c-1.5,0-2.71,1.21-2.71,2.71s1.21,2.71,2.71,2.71,2.71-1.21,2.71-2.71-1.21-2.71-2.71-2.71Zm0,0c-1.5,0-2.71,1.21-2.71,2.71s1.21,2.71,2.71,2.71,2.71-1.21,2.71-2.71-1.21-2.71-2.71-2.71Zm0,0c-1.5,0-2.71,1.21-2.71,2.71s1.21,2.71,2.71,2.71,2.71-1.21,2.71-2.71-1.21-2.71-2.71-2.71Zm0,0c-1.5,0-2.71,1.21-2.71,2.71s1.21,2.71,2.71,2.71,2.71-1.21,2.71-2.71-1.21-2.71-2.71-2.71Zm0,0c-1.5,0-2.71,1.21-2.71,2.71s1.21,2.71,2.71,2.71,2.71-1.21,2.71-2.71-1.21-2.71-2.71-2.71Z"/>
      </g>
      <g>
        <path class="cls-1" d="m16.03,47.58c0,1.5-1.21,2.71-2.71,2.71s-2.71-1.21-2.71-2.71,1.21-2.72,2.71-2.72,2.71,1.22,2.71,2.72Z"/>
        <path class="cls-1" d="m25.7,44.86c-1.5,0-2.71,1.22-2.71,2.72s1.21,2.71,2.71,2.71,2.71-1.21,2.71-2.71-1.21-2.72-2.71-2.72Zm0,0c-1.5,0-2.71,1.22-2.71,2.72s1.21,2.71,2.71,2.71,2.71-1.21,2.71-2.71-1.21-2.72-2.71-2.72Zm0,0c-1.5,0-2.71,1.22-2.71,2.72s1.21,2.71,2.71,2.71,2.71-1.21,2.71-2.71-1.21-2.72-2.71-2.72Zm0,0c-1.5,0-2.71,1.22-2.71,2.72s1.21,2.71,2.71,2.71,2.71-1.21,2.71-2.71-1.21-2.72-2.71-2.72Zm0,0c-1.5,0-2.71,1.22-2.71,2.72s1.21,2.71,2.71,2.71,2.71-1.21,2.71-2.71-1.21-2.72-2.71-2.72Zm0,0c-1.5,0-2.71,1.22-2.71,2.72s1.21,2.71,2.71,2.71,2.71-1.21,2.71-2.71-1.21-2.72-2.71-2.72Zm12.3-.4c0-1.82.36-3.56,1.02-5.14H8.25c-2.28,0-4.34.92-5.83,2.42-1.49,1.5-2.41,3.56-2.41,5.83,0,4.55,3.69,8.25,8.25,8.25h35.98c-3.74-2.4-6.23-6.59-6.23-11.36Zm-24.68,8.18c-2.79,0-5.06-2.27-5.06-5.06s2.27-5.07,5.06-5.07,5.06,2.27,5.06,5.07-2.27,5.06-5.06,5.06Zm12.37,0c-2.79,0-5.06-2.27-5.06-5.06s2.27-5.07,5.06-5.07,5.06,2.27,5.06,5.07-2.26,5.06-5.06,5.06Zm0-7.78c-1.5,0-2.71,1.22-2.71,2.72s1.21,2.71,2.71,2.71,2.71-1.21,2.71-2.71-1.21-2.72-2.71-2.72Zm0,0c-1.5,0-2.71,1.22-2.71,2.72s1.21,2.71,2.71,2.71,2.71-1.21,2.71-2.71-1.21-2.72-2.71-2.72Zm0,0c-1.5,0-2.71,1.22-2.71,2.72s1.21,2.71,2.71,2.71,2.71-1.21,2.71-2.71-1.21-2.72-2.71-2.72Zm0,0c-1.5,0-2.71,1.22-2.71,2.72s1.21,2.71,2.71,2.71,2.71-1.21,2.71-2.71-1.21-2.72-2.71-2.72Zm0,0c-1.5,0-2.71,1.22-2.71,2.72s1.21,2.71,2.71,2.71,2.71-1.21,2.71-2.71-1.21-2.72-2.71-2.72Z"/>
      </g>
      <path class="cls-1" d="m54.09,33.57c-.84-.2-1.71-.31-2.61-.31-2.88,0-5.51,1.1-7.5,2.89-.99.89-1.82,1.97-2.44,3.16-.8,1.54-1.25,3.29-1.25,5.14,0,5.72,4.29,10.44,9.84,11.11h.02c.44.05.88.08,1.34.08,6.18,0,11.19-5.01,11.19-11.19,0-5.28-3.66-9.71-8.58-10.89Zm4.75,8.04l-2.97,3.2-5.92,6.4c-.23.23-.54.38-.86.38h-.02c-.33,0-.64-.15-.86-.39l-4.1-4.56c-.43-.49-.39-1.23.09-1.66.48-.43,1.22-.39,1.65.09l3.23,3.6,5.59-6.04,2.43-2.62c.45-.48,1.18-.5,1.66-.06.48.44.5,1.18.06,1.66Z"/>
    </g>
  </g>
</svg>