<?xml version="1.0" encoding="UTF-8"?>
<svg id="Capa_2" data-name="Capa 2" xmlns="http://www.w3.org/2000/svg" viewBox="0 0 43.59 60.32">
  <defs>
    <style>
      .cls-1 {
        fill: #0c2340;
      }
    </style>
  </defs>
  <g id="Customer_Acquisition_Services" data-name="Customer Acquisition Services">
    <g id="_2retention" data-name="2retention">
      <g>
        <circle class="cls-1" cx="21.79" cy="20.37" r="5.33"/>
        <path class="cls-1" d="m29.94,35.2v8.84c0,1.19-.97,2.16-2.16,2.16h-11.97c-1.19,0-2.16-.97-2.16-2.16v-8.84c0-2,.71-3.82,1.9-5.24,1.5-1.78,3.73-2.91,6.24-2.91,2.25,0,4.29.91,5.76,2.38.13.13.26.27.39.42,1.25,1.43,2,3.3,2,5.34Z"/>
      </g>
      <path class="cls-1" d="m43.14,21l-2.57,2.88c-.69.76-1.97.74-2.64,0l-2.56-2.88c-.52-.57-.6-1.44-.19-2.1.38-.65,1.15-.98,1.92-.8l.35.08c-.54-8.16-7.36-14.63-15.66-14.63s-15.69,7.03-15.69,15.68v8.7c0,.97-.79,1.77-1.77,1.77s-1.77-.8-1.77-1.77v-8.7C2.56,8.63,11.18,0,21.79,0s18.67,8.07,19.21,18.2l.39-.1c.76-.19,1.54.14,1.94.81.4.67.32,1.51-.19,2.09Z"/>
      <path class="cls-1" d="m41.02,32.39v8.7c0,10.6-8.62,19.23-19.23,19.23S3.12,52.25,2.58,42.12l-.39.1c-.76.18-1.54-.14-1.94-.81-.4-.67-.32-1.51.19-2.09H.44s2.57-2.88,2.57-2.88c.69-.76,1.97-.74,2.64,0l2.56,2.88c.52.57.6,1.44.19,2.1-.38.65-1.15.98-1.92.8l-.35-.08c.54,8.16,7.36,14.63,15.66,14.63s15.69-7.03,15.69-15.68v-8.7c0-.98.79-1.77,1.77-1.77s1.77.79,1.77,1.77Z"/>
    </g>
  </g>
</svg>