<?xml version="1.0" encoding="UTF-8"?>
<svg id="Capa_2" data-name="Capa 2" xmlns="http://www.w3.org/2000/svg" viewBox="0 0 42.6 41.3">
  <defs>
    <style>
      .cls-1 {
        fill: #0c2340;
        stroke-width: 0px;
      }
    </style>
  </defs>
  <g id="Customer_Acquisition_Services" data-name="Customer Acquisition Services">
    <g id="_6product" data-name="6product">
      <path class="cls-1" d="m40.96,9.78h-14.45v6.94c0,.58-.3,1.11-.79,1.42-.5.31-1.11.34-1.63.08l-2.79-1.4-2.83,1.41c-.23.11-.47.16-.72.16-.31,0-.61-.08-.88-.25-.49-.31-.79-.84-.79-1.42v-6.94H1.63c-.9,0-1.63.73-1.63,1.63v28.25c0,.91.74,1.64,1.64,1.64h39.32c.91,0,1.64-.73,1.64-1.64V11.42c0-.9-.73-1.64-1.64-1.64Zm-19.11,24.97H7.94c-.74,0-1.42-.53-1.48-1.26-.08-.83.57-1.53,1.38-1.53h13.91c.74,0,1.42.54,1.49,1.27.07.83-.58,1.52-1.39,1.52Zm6.28-5.4H7.95c-.74,0-1.42-.53-1.49-1.26-.08-.83.57-1.54,1.38-1.54h20.19c.74,0,1.42.53,1.49,1.27.08.83-.57,1.53-1.39,1.53Z"/>
      <path class="cls-1" d="m16.09,0v7.44H1.63c-.9,0-1.63-.73-1.63-1.63V1.63C0,.73.73,0,1.63,0h14.46Z"/>
      <path class="cls-1" d="m42.6,1.63v4.18c0,.9-.73,1.63-1.63,1.63h-14.45V0h14.45c.91,0,1.63.73,1.63,1.63Z"/>
      <path class="cls-1" d="m24.58,0v15.69c0,.33-.34.54-.64.39l-1.96-.98-.32-.16c-.11-.05-.23-.08-.34-.08s-.24.03-.34.08l-1.6.8-.64.32-.05.02c-.3.15-.64-.07-.64-.39V0h6.56Z"/>
    </g>
  </g>
</svg>