<?xml version="1.0" encoding="UTF-8"?>
<svg id="Capa_2" data-name="Capa 2" xmlns="http://www.w3.org/2000/svg" viewBox="0 0 61.68 54.85">
  <defs>
    <style>
      .cls-1 {
        fill: #0c2340;
      }
    </style>
  </defs>
  <g id="Contact_Center_Services" data-name="Contact Center Services">
    <g id="_5message" data-name="5message">
      <path class="cls-1" d="m38.14,49.42c-4.03,3.38-9.24,5.42-14.91,5.42-3.67,0-7.14-.85-10.23-2.37-.02.03-.04.04-.06.05-1.54.88-3.74,1.84-6.52,2.19-1.25.16-2.41.16-3.4.08-.69-.06-1.12-.77-.83-1.4.51-1.12,1-2.4,1.43-3.84.42-1.48.7-2.85.88-4.09,0-.03,0-.06.02-.08-2.84-3.85-4.52-8.61-4.52-13.75C0,21.28,6.77,12.51,16.12,9.51c-2.47,3.98-3.88,8.68-3.88,13.71,0,14.37,11.57,26.03,25.9,26.2Z"/>
      <path class="cls-1" d="m58.12,41.15c-.05-.16-.09-.32-.13-.48-.36-1.29-.6-2.51-.75-3.61,0-.06-.02-.1-.04-.15,2.81-3.84,4.47-8.57,4.47-13.69C61.68,10.4,51.28,0,38.45,0c-7.27,0-13.76,3.34-18.02,8.57-3.25,3.99-5.21,9.09-5.21,14.65,0,12.83,10.4,23.22,23.23,23.22.95,0,1.88-.06,2.79-.18,2.66-.3,5.17-1.08,7.47-2.21.03.04.05.05.07.06.89.51,2,1.05,3.32,1.47.97.32,2.04.58,3.21.73,1.25.16,2.4.16,3.4.08.69-.05,1.12-.77.83-1.4-.51-1.12-1-2.4-1.43-3.84Zm-27.02-13.68c-2.35,0-4.25-1.91-4.25-4.26s1.9-4.25,4.25-4.25,4.26,1.9,4.26,4.25-1.91,4.26-4.26,4.26Zm15.16-.14c-.34.09-.71.14-1.08.14-2.35,0-4.26-1.91-4.26-4.26,0-1.64.93-3.05,2.29-3.76h0c.59-.31,1.26-.49,1.97-.49,2.35,0,4.25,1.9,4.25,4.25,0,1.97-1.34,3.63-3.16,4.11Z"/>
    </g>
  </g>
</svg>