<?xml version="1.0" encoding="UTF-8"?>
<svg id="Capa_2" data-name="Capa 2" xmlns="http://www.w3.org/2000/svg" viewBox="0 0 58 49.28">
  <defs>
    <style>
      .cls-1 {
        fill: #0c2340;
      }
    </style>
  </defs>
  <g id="Contact_Center_Services" data-name="Contact Center Services">
    <g id="_6video-calls" data-name="6video-calls">
      <path class="cls-1" d="m58,42.2v.83c0,3.46-2.8,6.25-6.25,6.25H6.25c-3.45,0-6.25-2.79-6.25-6.25v-.83c0-.49.4-.88.88-.88h23.45v.68c0,.99.8,1.79,1.79,1.79h5.76c.99,0,1.79-.8,1.79-1.79v-.68h23.45c.48,0,.88.39.88.88Z"/>
      <path class="cls-1" d="m55.02,38.54c0,.42-.34.76-.76.76h-15.37c-.75-3.76-3.61-6.77-7.3-7.73,2.63-1.04,4.48-3.63,4.44-6.65-.07-3.74-3.22-6.88-6.96-6.91-3.92-.03-7.09,3.12-7.09,7.02,0,2.98,1.84,5.52,4.45,6.54-3.69.96-6.55,3.97-7.31,7.73H3.75c-.42,0-.76-.34-.76-.76V8.97c0-2.58,2.09-4.67,4.67-4.67h15.1c.16,3.31,2.89,5.94,6.24,5.94s6.09-2.63,6.26-5.94h15.09c2.58,0,4.67,2.09,4.67,4.67v29.57Z"/>
      <path class="cls-1" d="m29.01,0c-2.39,0-4.31,1.92-4.31,4.3s1.92,4.31,4.31,4.31,4.3-1.92,4.3-4.31-1.92-4.3-4.3-4.3Zm0,2.77c-.85,0-1.54.69-1.54,1.53,0,.35-.28.63-.63.63s-.63-.28-.63-.63c0-1.54,1.25-2.79,2.8-2.79.34,0,.63.28.63.63s-.29.63-.63.63Z"/>
      <path class="cls-1" d="m25.3,25.03c0-2.04,1.66-3.7,3.71-3.7s3.7,1.66,3.7,3.7-1.66,3.71-3.7,3.71-3.71-1.66-3.71-3.71Z"/>
      <path class="cls-1" d="m32.71,25.03c0,2.05-1.66,3.71-3.7,3.71s-3.71-1.66-3.71-3.71,1.66-3.7,3.71-3.7,3.7,1.66,3.7,3.7Z"/>
      <path class="cls-1" d="m35.72,39.3h-13.43c.87-2.89,3.55-4.99,6.72-4.99s5.84,2.1,6.71,4.99Z"/>
    </g>
  </g>
</svg>