<?xml version="1.0" encoding="UTF-8"?>
<svg id="Capa_2" data-name="Capa 2" xmlns="http://www.w3.org/2000/svg" viewBox="0 0 58 40.69">
  <defs>
    <style>
      .cls-1 {
        fill: #0c2340;
        stroke-width: 0px;
      }
    </style>
  </defs>
  <g id="Contact_Center_Services" data-name="Contact Center Services">
    <g id="_6video-calls" data-name="6video-calls">
      <path class="cls-1" d="m58,33.61v.83c0,3.46-2.8,6.25-6.25,6.25H6.25c-3.45,0-6.25-2.79-6.25-6.25v-.83c0-.49.4-.88.88-.88h23.45v.68c0,.99.8,1.79,1.79,1.79h5.76c.99,0,1.79-.8,1.79-1.79v-.68h23.45c.48,0,.88.39.88.88Z"/>
      <g>
        <path class="cls-1" d="m32.18,0c.17.04.34.08.5.13,1.56.45,2.58,2,2.37,3.57-.23,1.65-1.59,2.87-3.23,2.89-1.87.01-3.75.01-5.62,0-1.68-.01-3.12-1.35-3.24-2.98-.13-1.75,1.04-3.27,2.75-3.56.05,0,.09-.03.13-.04,2.11,0,4.23,0,6.34,0Zm-4.83,2.31c-.4,0-.81,0-1.21,0-.59.01-1.02.42-1.03.96,0,.53.4.97.97.99.84.02,1.68.02,2.52,0,.57-.02.97-.47.96-1-.01-.54-.43-.94-1-.95-.4-.01-.81,0-1.21,0Zm4.62,1.88c.51,0,.94-.44.93-.96,0-.52-.43-.93-.95-.92-.52,0-.94.43-.93.95,0,.51.45.94.95.93Z"/>
        <g>
          <path class="cls-1" d="m20.26,26.72c.02.65,0,2.33,0,3.05l-8.8.02c-.05-1.61-.18-4.25.91-5.63.63-.78,1.5-1.33,2.44-1.56.35-.1.71-.14,1.07-.14s.69.05,1.04.14c.09.02.18.05.27.07,1.78.59,3.02,2.21,3.06,4.05Z"/>
          <path class="cls-1" d="m27.52,9.29v20.48h-5.45s0-.72,0-.72c0-.83,0-1.86,0-2.37-.06-2.18-1.29-4.15-3.16-5.21.79-.79,1.28-1.89,1.27-3.1,0-2.37-1.95-4.3-4.32-4.3s-4.3,1.93-4.32,4.3c0,1.16.43,2.25,1.25,3.08,0,0,.02.02.03.03-.7.4-1.33.93-1.85,1.57-1.45,1.82-1.37,4.67-1.31,6.55v.2h-5.48s0-26.26,0-26.26c.39-.84,1.05-1.1,1.96-1.08,1.41.02,8.53.02,14.18.02-.07.43-.09.87-.05,1.33.23,3.05,2.82,5.46,5.92,5.49.44,0,.88,0,1.33,0Z"/>
          <path class="cls-1" d="m18.38,18.39c0,1.05-.63,1.95-1.54,2.34h0c-.29.13-.6.2-.94.2h-.04c-.33,0-.66-.06-.95-.19-.93-.38-1.59-1.3-1.57-2.36,0-1.39,1.13-2.5,2.51-2.5s2.5,1.14,2.52,2.51Z"/>
        </g>
        <g>
          <path class="cls-1" d="m37.75,26.72c-.02.65,0,2.33,0,3.05l8.8.02c.05-1.61.18-4.25-.91-5.63-.63-.78-1.5-1.33-2.44-1.56-.35-.1-.71-.14-1.07-.14s-.69.05-1.04.14c-.09.02-.18.05-.27.07-1.78.59-3.02,2.21-3.06,4.05Z"/>
          <path class="cls-1" d="m30.49,9.29v20.48s5.45,0,5.45,0v-.73c0-.83,0-1.86,0-2.37.06-2.18,1.29-4.15,3.16-5.21-.79-.79-1.28-1.89-1.27-3.1,0-2.37,1.95-4.3,4.32-4.3s4.3,1.93,4.32,4.3c0,1.16-.43,2.25-1.25,3.08,0,0-.02.02-.03.03.7.4,1.33.93,1.85,1.57,1.45,1.82,1.37,4.67,1.31,6.55v.2s5.48,0,5.48,0V3.53c-.39-.84-1.05-1.1-1.96-1.08-1.41.02-8.53.02-14.18.02.07.43.09.87.05,1.33-.23,3.05-2.82,5.46-5.92,5.49-.44,0-.88,0-1.33,0Z"/>
          <path class="cls-1" d="m39.63,18.39c0,1.05.63,1.95,1.54,2.34h0c.29.13.6.2.94.2h.04c.33,0,.66-.06.95-.19.93-.38,1.59-1.3,1.57-2.36,0-1.39-1.13-2.5-2.51-2.5s-2.5,1.14-2.52,2.51Z"/>
        </g>
      </g>
    </g>
  </g>
</svg>