<?xml version="1.0" encoding="UTF-8"?>
<svg id="Capa_2" data-name="Capa 2" xmlns="http://www.w3.org/2000/svg" viewBox="0 0 47.26 64.22">
  <defs>
    <style>
      .cls-1 {
        fill: #0c2340;
      }
    </style>
  </defs>
  <g id="Customer_Acquisition_Services" data-name="Customer Acquisition Services">
    <g id="_1acquisition" data-name="1acquisition">
      <path class="cls-1" d="m47.26,23.63C47.26,10.6,36.66,0,23.63,0S0,10.6,0,23.63v16.16c0,5.01,1.57,9.66,4.24,13.48-.69,1.09-1.08,2.38-1.08,3.76,0,3.97,3.22,7.19,7.19,7.19h26.34c1.98,0,3.78-.81,5.08-2.11s2.11-3.1,2.11-5.08c0-1.31-.35-2.54-.98-3.6,2.75-3.85,4.36-8.56,4.36-13.64v-16.16ZM14.81,58.49l.22,1.26.15.82-2.31-1.21-.4.21-1.28.67-.63.33.33-1.94.11-.63-1.77-1.71-.1-.1,1.45-.21.59-.08h.02s.52-.09.52-.09l1.06-2.14.1-.19.2.4.95,1.93,2.57.38-1.84,1.79-.02.02.08.49Zm8.82-27.79c2.54,0,4.85,1.03,6.53,2.7.15.16.3.32.44.47,1.41,1.62,2.25,3.74,2.25,6.05v8.48c0,.79-.64,1.43-1.43,1.43h-15.57c-.79,0-1.43-.64-1.43-1.43v-8.48c0-2.26.81-4.33,2.16-5.94,1.69-2.02,4.23-3.29,7.06-3.29Zm-6.03-7.58c0-3.33,2.69-6.02,6.02-6.02s6.03,2.7,6.03,6.02-2.7,6.04-6.03,6.04-6.02-2.7-6.02-6.04Zm9.31,33.5l-1.42,1.38.3,1.74.09.53.05.3-.51-.27-.94-.5-.84-.44-.85.44-.95.5-.51.27.05-.3.09-.53.3-1.74-1.42-1.38-.45-.43,2.58-.38,1.16-2.33,1.15,2.33,2.57.38-.45.43Zm11.12-.33l-1.77,1.71.11.63.33,1.94-.63-.33-1.27-.68-.39-.2-2.32,1.21.15-.82.22-1.26.08-.49-.02-.02-1.85-1.79,2.58-.38.97-1.95.19-.38.09.18,1.06,2.15.51.08h.02s.59.09.59.09l1.45.21-.1.1Zm6.4-15.77c0,4.04-1.18,7.79-3.21,10.94-.65-.54-1.4-.96-2.22-1.23,1.97-2.85,3.13-6.31,3.13-10.03v-17.03c0-9.75-7.9-17.63-17.63-17.63h-1.74c-9.73,0-17.63,7.88-17.63,17.63v17.03c0,3.69,1.14,7.13,3.09,9.96-.83.26-1.59.66-2.25,1.19-1.99-3.13-3.14-6.84-3.14-10.83v-17.56C2.83,11.74,11.94,2.63,23.18,2.63h.92c11.22,0,20.33,9.11,20.33,20.33v17.56Z"/>
    </g>
  </g>
</svg>