<?xml version="1.0" encoding="UTF-8"?>
<svg id="Capa_2" data-name="Capa 2" xmlns="http://www.w3.org/2000/svg" viewBox="0 0 54.84 54.84">
  <defs>
    <style>
      .cls-1 {
        fill: #0c2340;
      }
    </style>
  </defs>
  <g id="Customer_Acquisition_Services" data-name="Customer Acquisition Services">
    <g id="_3onboarding" data-name="3onboarding">
      <path class="cls-1" d="m42.21,0H12.63C5.67,0,0,5.67,0,12.63v29.58c0,6.96,5.67,12.63,12.63,12.63h29.58c6.96,0,12.63-5.67,12.63-12.63V12.63c0-6.96-5.67-12.63-12.63-12.63Zm9.64,42.21c0,5.32-4.33,9.63-9.64,9.63H12.63c-5.31,0-9.63-4.31-9.63-9.63V12.63C3,7.32,7.32,2.99,12.63,2.99h29.58c5.31,0,9.64,4.33,9.64,9.64v29.58Z"/>
      <path class="cls-1" d="m41.49,6.19c-.12-.02-.24-.02-.36-.02h-.04v11.51c0,.66-.62,1.09-1.17.8l-3.6-1.93-.58-.31c-.2-.11-.41-.17-.63-.17s-.44.06-.64.17l-2.93,1.56-1.18.62-.08.06c-.54.29-1.16-.14-1.16-.8V6.17h-15.56c-4.1,0-7.42,3.32-7.42,7.42v27.57c0,4.11,3.32,7.43,7.42,7.43h27.57c4.1,0,7.42-3.32,7.42-7.43V13.59c0-3.98-3.13-7.22-7.06-7.4Zm-.52,34.15c-.35.39-.84.63-1.38.63h-23.51c-1.08,0-1.95-.97-1.95-2.18,0-.6.21-1.14.57-1.52.35-.41.84-.65,1.38-.65h23.51c1.07,0,1.95.97,1.95,2.17,0,.61-.22,1.15-.57,1.55Zm0-8.36c-.35.4-.84.64-1.38.64h-23.52c-1.07,0-1.94-.97-1.94-2.18,0-.6.21-1.14.56-1.53.36-.39.84-.63,1.38-.63h23.52c1.07,0,1.95.96,1.95,2.16,0,.61-.22,1.15-.57,1.54Z"/>
    </g>
  </g>
</svg>