<?xml version="1.0" encoding="UTF-8"?>
<svg id="Capa_2" data-name="Capa 2" xmlns="http://www.w3.org/2000/svg" viewBox="0 0 54.84 54.84">
  <defs>
    <style>
      .cls-1 {
        fill: #0c2340;
      }
    </style>
  </defs>
  <g id="Customer_Acquisition_Services" data-name="Customer Acquisition Services">
    <g id="_4aplication" data-name="4aplication">
      <path class="cls-1" d="m41.13,6.17H13.56c-4.1,0-7.42,3.32-7.42,7.42v27.57c0,4.1,3.32,7.42,7.42,7.42h27.57c4.1,0,7.42-3.32,7.42-7.42V13.59c0-4.1-3.32-7.42-7.42-7.42ZM15.77,40.13c-1.83,0-3.31-1.48-3.31-3.31s1.48-3.31,3.31-3.31,3.31,1.48,3.31,3.31-1.48,3.31-3.31,3.31Zm0-12.26c-1.83,0-3.31-1.48-3.31-3.31s1.48-3.31,3.31-3.31,3.31,1.48,3.31,3.31-1.48,3.31-3.31,3.31Zm26.21,10.5c-.33.4-.8.64-1.31.64h-14.76c-1.03,0-1.85-.97-1.85-2.18,0-.6.2-1.14.54-1.53.33-.4.8-.64,1.31-.64h14.76c1.02,0,1.85.97,1.85,2.17,0,.61-.21,1.15-.54,1.54Zm0-12.27c-.33.4-.8.64-1.31.64h-14.76c-1.02,0-1.85-.97-1.85-2.18,0-.6.2-1.14.54-1.53s.8-.64,1.31-.64h14.76c1.02,0,1.85.97,1.85,2.17,0,.61-.21,1.15-.54,1.54Z"/>
      <g id="_3-system-admin" data-name="3-system-admin">
        <path class="cls-1" d="m42.21,0H12.63C5.67,0,0,5.67,0,12.63v29.58c0,6.96,5.67,12.63,12.63,12.63h29.58c6.96,0,12.63-5.67,12.63-12.63V12.63c0-6.96-5.67-12.63-12.63-12.63Zm9.64,42.21c0,5.31-4.33,9.64-9.64,9.64H12.63c-5.31,0-9.64-4.33-9.64-9.64V12.63C2.99,7.32,7.32,2.99,12.63,2.99h29.58c5.31,0,9.64,4.33,9.64,9.64v29.58Z"/>
      </g>
    </g>
  </g>
</svg>