<?xml version="1.0" encoding="UTF-8"?>
<svg id="Capa_2" data-name="Capa 2" xmlns="http://www.w3.org/2000/svg" viewBox="0 0 42.31 55.32">
  <defs>
    <style>
      .cls-1 {
        fill: #0c2340;
      }
    </style>
  </defs>
  <g id="Customer_Acquisition_Services" data-name="Customer Acquisition Services">
    <g id="_5welcome" data-name="5welcome">
      <g>
        <path class="cls-1" d="m11.58,3.86c1.3-.09,2.66.07,3.82-.71.84-.57,1.65-1.18,2.45-1.81C18.77.62,19.74.04,20.97,0c1.32-.04,2.4.49,3.41,1.28.97.75,1.97,1.46,3.02,2.09.45.27,1.06.34,1.6.4,1.35.14,2.72.12,4.06.34,1.58.26,2.92,1.44,3.37,3.54.24,1.11.54,2.2.81,3.31.3,1.2,1.2,1.94,2.03,2.74.84.82,1.73,1.63,2.41,2.58.78,1.11.8,2.43.27,3.67-.49,1.15-1.09,2.26-1.65,3.38-.49.97-.58,1.96-.43,3.04.19,1.34.36,2.71.3,4.06-.07,1.51-.99,2.61-2.34,3.28-1.01.5-2.07.93-3.11,1.36-1.16.47-1.97,1.28-2.6,2.35-.6,1.01-1.2,2.07-2.01,2.9-1.17,1.2-2.65,1.7-4.37,1.18-1.26-.38-2.52-.73-3.79-1.06-.71-.18-1.42-.13-2.13.09-1.29.39-2.58.84-3.9,1.11-1.29.26-2.52-.12-3.42-1.07-.74-.78-1.38-1.68-1.91-2.61-.93-1.65-2.26-2.71-4.03-3.34-.89-.32-1.77-.71-2.57-1.21-1.5-.95-2.2-2.74-1.83-4.58.13-.65.16-1.32.22-1.99.05-.52.14-1.05.08-1.56-.07-.63-.19-1.28-.43-1.85-.55-1.3-1.27-2.53-1.77-3.84-.6-1.56-.11-2.99.97-4.17.83-.91,1.75-1.75,2.67-2.58.87-.78,1.2-1.8,1.46-2.88.32-1.33.42-2.74,1.17-3.95.81-1.32,2-1.98,3.54-2.03.5-.02,1-.08,1.51-.13Zm-5.7,16.78c-.2,8.13,6.88,15.97,16.35,15.31,4.01-.28,7.41-1.95,10.15-4.9,3.11-3.34,4.39-7.34,4.01-11.85-.32-3.79-1.92-7.01-4.68-9.62-3.37-3.19-7.42-4.46-12.02-4.13-7.1.51-13.87,6.71-13.81,15.2Z"/>
        <path class="cls-1" d="m31.5,42.81v10.88c0,1.21-1.27,1.99-2.35,1.45l-7.18-3.58-1.17-.59h0c-.79-.39-1.73-.39-2.52,0l-5.84,2.91-2.35,1.17-.17.09c-1.08.54-2.35-.25-2.35-1.45v-15.3c.67.58,1.24,1.29,1.71,2.13.24.43.52.86.8,1.28.41.58.86,1.14,1.34,1.65.31.32.64.58,1.01.79.84.47,1.82.62,2.83.41,1.48-.3,2.92-.8,4.37-1.24.42-.13.85-.21,1.28-.22.88.23,1.76.48,2.63.74.48.14,2.28.43,2.73.56,1.92.58,3.59.02,4.9-1.33.11-.11.22-.23.32-.35Z"/>
        <path class="cls-1" d="m36.5,38.36v11.59c0,1.21-1.27,1.99-2.35,1.45h0s.02-11.78.02-11.78c.61-.77,1.35-2.36,2.31-2.76.01.48,0,1.49.02,1.49Z"/>
        <path class="cls-1" d="m33.84,20.87c0,7-5.68,12.68-12.68,12.68s-12.69-5.68-12.69-12.68,5.68-12.69,12.69-12.69,12.68,5.68,12.68,12.69Z"/>
      </g>
    </g>
  </g>
</svg>