<?xml version="1.0" encoding="UTF-8"?>
<svg id="Capa_2" data-name="Capa 2" xmlns="http://www.w3.org/2000/svg" viewBox="0 0 71.01 70.96">
  <defs>
    <style>
      .cls-1 {
        fill: #a8adb0;
        stroke-width: 0px;
      }
    </style>
  </defs>
  <g id="Customer_Acquisition_Services" data-name="Customer Acquisition Services">
    <g>
      <path class="cls-1" d="m36.48,39.34v8.48c0,.8-.64,1.44-1.43,1.44h-15.57c-.8,0-1.44-.64-1.44-1.44v-8.48c0-2.26.81-4.32,2.16-5.93,1.69-2.02,4.23-3.29,7.06-3.29,2.54,0,4.85,1.03,6.53,2.7.15.15.3.31.44.47,1.4,1.62,2.25,3.74,2.25,6.05Z"/>
      <g>
        <path class="cls-1" d="m6.78,9.42c-9.06,10.33-9.03,26.08.08,36.37,9.6,10.84,25.51,12.22,36.72,4.15l.5.5c1.13,1.13,2.97,1.13,4.09,0l2.28-2.29c1.13-1.13,1.13-2.97,0-4.09l-.5-.5c7.72-10.76,6.72-25.84-2.97-35.5C35.78-3.12,17.38-2.66,6.78,9.42Zm36,33.35c-8.4,8.42-22.07,8.44-30.48.05-8.41-8.39-8.43-22.07-.03-30.48,8.39-8.41,22.07-8.43,30.48-.04s8.43,22.07.04,30.48Z"/>
        <path class="cls-1" d="m56.42,47.35h7.01c2.24,0,4.07,1.82,4.07,4.07v13.43c0,4.18-3.39,7.57-7.57,7.57h0c-4.18,0-7.57-3.39-7.57-7.57v-13.43c0-2.24,1.82-4.07,4.07-4.07Z" transform="translate(-24.79 60.02) rotate(-45.07)"/>
      </g>
      <path class="cls-1" d="m33.29,22.54c0,3.33-2.7,6.04-6.03,6.04s-6.03-2.71-6.03-6.04,2.69-6.03,6.03-6.03,6.03,2.7,6.03,6.03Z"/>
    </g>
  </g>
</svg>