<?xml version="1.0" encoding="UTF-8"?>
<svg id="Capa_2" data-name="Capa 2" xmlns="http://www.w3.org/2000/svg" viewBox="0 0 13.18 16">
  <defs>
    <style>
      .cls-1 {
        fill: #00c756;
      }

      .cls-2 {
        fill: #102d4f;
      }

      .cls-3 {
        fill: #0c2340;
      }
    </style>
  </defs>
  <g id="logo_variation_of_color" data-name="logo variation of color">
    <g>
      <circle class="cls-1" cx="1.86" cy="14.49" r="1.51"/>
      <path class="cls-2" d="m11.6,3.1l-7.36,3.46c-.22.1-.46.16-.69.16-.61,0-1.2-.35-1.47-.94-.38-.81-.03-1.78.78-2.16L10.21.15c.22-.1.46-.15.69-.15.61,0,1.2.35,1.47.94.38.81.03,1.78-.78,2.16Z"/>
      <path class="cls-2" d="m12.24,11.73l-5.74,2.69c-.22.1-.46.15-.69.15-.61,0-1.2-.35-1.47-.94-.38-.81-.03-1.78.78-2.16l5.74-2.68c.22-.11.46-.15.69-.15.61,0,1.2.35,1.47.94.38.81.03,1.78-.78,2.16Z"/>
      <path class="cls-3" d="m9.27,8.63l-6.96,3.25c-.22.1-.46.15-.69.15-.61,0-1.2-.35-1.48-.94-.38-.81-.03-1.78.78-2.16l6.96-3.25c.22-.1.46-.15.69-.15.61,0,1.2.35,1.48.94.38.81.03,1.78-.78,2.16Z"/>
    </g>
  </g>
</svg>