<?xml version="1.0" encoding="UTF-8"?>
<svg id="Capa_2" data-name="Capa 2" xmlns="http://www.w3.org/2000/svg" viewBox="0 0 54.2 50.21">
  <defs>
    <style>
      .cls-1 {
        fill: #0c2340;
        stroke-width: 0px;
      }
    </style>
  </defs>
  <g id="IT_Support_Services" data-name="IT Support Services">
    <g id="_1-network" data-name="1-network">
      <path class="cls-1" d="m15.39,2.14v.15s-.01.08-.02.13c-.01.1-.04.2-.07.29-.07.18-.16.34-.27.49h-.01c-.31.4-.8.65-1.34.65-.18,0-.35-.02-.51-.07-.57-.18-1.02-.65-1.16-1.25-.03-.12-.05-.25-.05-.39,0-.95.77-1.72,1.72-1.72.37,0,.71.12.99.32.27.2.49.46.61.78.04.1.07.21.09.32.02.1.02.2.02.3Z"/>
      <path class="cls-1" d="m10.78,42.29c-4.23-4.5-6.62-10.3-6.79-16.48,1.2-.62,2.09-1.71,2.45-3.01,2.57-.48,5.19-.77,7.82-.87.07.19.16.38.27.56-3.43,7.36-4.02,14.48-3.75,19.8Z"/>
      <path class="cls-1" d="m37.65,21.59c-1.4-.61-2.84-1.15-4.29-1.63-3.34-1.11-6.81-1.9-10.3-2.34-.01-.02-.02-.03-.03-.05,1.28-1.62,2.7-3.14,4.25-4.52,1.07.43,2.31.46,3.41.08,1.83,1.64,3.49,3.46,4.96,5.44.71.97,1.38,1.97,2,3.02Z"/>
      <path class="cls-1" d="m38.21,28.69c-.82,1.01-1.7,1.99-2.6,2.94-5.26,5.51-11.54,9.66-18.67,12.37-.42-.37-.89-.66-1.4-.87-.38-4.68-.06-11.29,3.01-18.15,1.92.1,3.72-.96,4.59-2.6,2.97.41,5.91,1.1,8.75,2.04,2.03.67,4.04,1.49,5.96,2.42,0,.64.12,1.27.36,1.85Z"/>
      <path class="cls-1" d="m42.77,43.28c-1.77.76-2.99,2.53-2.99,4.52v.04c-3.31,1.56-6.98,2.37-10.69,2.37-3.48,0-6.82-.68-9.94-2.03,7.56-2.96,14.24-7.43,19.85-13.3.96-1,1.88-2.04,2.77-3.12,1.07,4.52,1.17,8.6,1,11.52Z"/>
      <path class="cls-1" d="m47.51,42.17c.07-2.73-.08-6.14-.82-9.88,1.68,1.3,3.29,2.7,4.8,4.19-1.05,2.06-2.38,3.97-3.98,5.69Z"/>
      <path class="cls-1" d="m54.2,25.11c0,2.26-.3,4.48-.88,6.63-1.78-1.64-3.68-3.17-5.66-4.56.01-.11.01-.23.01-.34,0-.92-.25-1.81-.72-2.57,1.89-3.28,3.44-6.76,4.63-10.37,1.72,3.45,2.62,7.29,2.62,11.21Z"/>
      <path class="cls-1" d="m47.32,11.8c-1.08,3.43-2.51,6.73-4.28,9.84-1.03-2.04-2.25-4.01-3.62-5.87-1.64-2.21-3.5-4.25-5.56-6.1.09-.39.14-.79.14-1.19v-.16c2.08-1.15,4.27-2.11,6.52-2.85.92.97,2.2,1.53,3.57,1.53.68,0,1.35-.14,1.96-.41.03.03.07.06.1.09-.18.52-.28,1.07-.28,1.63,0,1.32.54,2.57,1.45,3.49Z"/>
      <path class="cls-1" d="m37.65,1.48c-1.56.58-3.11,1.26-4.63,2.02-.47.25-.95.5-1.42.76-1.55-.93-3.64-.89-5.17.1-1.94-1.09-3.96-2.03-6.05-2.82,2.76-1.03,5.68-1.54,8.71-1.54s5.84.5,8.56,1.48Z"/>
      <path class="cls-1" d="m24.27,9.43c-1.95,1.72-3.74,3.65-5.32,5.74-1.64-.04-3.19.73-4.13,2.03-.42.01-.84.03-1.27.04-2.74.13-5.48.46-8.15.97-.11-.13-.23-.25-.36-.36,1.19-3.94,3.35-7.55,6.3-10.5.2-.2.41-.41.63-.61.54.21,1.12.31,1.71.31,1.42,0,2.73-.6,3.64-1.61,2.37.79,4.67,1.81,6.86,3.04,0,.32.03.64.09.95Z"/>
      <path class="cls-1" d="m30.81,8.48c0,.19-.03.36-.09.53-.18.58-.67,1.02-1.27,1.15-.12.03-.24.04-.36.04-.2,0-.4-.04-.58-.1-.57-.21-1-.7-1.11-1.31,0-.03-.01-.06-.01-.1-.01-.07-.01-.14-.01-.21,0-.56.27-1.06.69-1.37.28-.21.64-.34,1.02-.34.31,0,.61.08.86.23.51.3.86.85.86,1.48Z"/>
      <g>
        <path class="cls-1" d="m52.5,8.31c0,.24-.05.47-.14.67-.21.5-.66.88-1.2,1-.05.02-.1.03-.15.03-.07.01-.15.02-.23.02-.49,0-.93-.21-1.24-.54-.29-.31-.47-.72-.47-1.18,0-.22.04-.44.12-.64.23-.55.73-.96,1.33-1.05.09-.02.17-.02.26-.02.95,0,1.72.77,1.72,1.71Z"/>
        <path class="cls-1" d="m20.52,20.08c0,.17-.03.34-.07.5-.22.7-.87,1.21-1.64,1.21-.12,0-.23-.01-.33-.03h-.01c-.61-.12-1.11-.57-1.3-1.15-.02-.07-.03-.13-.05-.2-.02-.11-.03-.22-.03-.33,0-.56.27-1.06.68-1.37.21-.16.47-.27.74-.32.1-.02.2-.03.3-.03.45,0,.86.18,1.16.46.06.06.12.12.17.18.24.3.38.67.38,1.08Z"/>
        <path class="cls-1" d="m3.43,21.46c0,.16-.02.32-.07.47-.12.43-.41.8-.79,1.02-.25.14-.54.23-.86.23-.3,0-.59-.09-.84-.23-.52-.29-.87-.85-.87-1.49,0-.8.55-1.47,1.28-1.66.14-.04.29-.05.43-.05.48,0,.9.19,1.21.49l.04.04c.29.31.47.72.47,1.18Z"/>
      </g>
      <path class="cls-1" d="m45.8,2.09s0,.11-.01.16c-.05.61-.43,1.14-.97,1.39-.22.11-.47.17-.73.17-.51,0-.96-.22-1.28-.57-.27-.3-.44-.71-.44-1.15v-.06c.01-.15.03-.3.08-.45.13-.42.42-.77.8-.99.25-.14.53-.21.84-.21.94,0,1.71.77,1.71,1.71Z"/>
      <path class="cls-1" d="m46.41,47.8c0,.94-.77,1.71-1.72,1.71-.31,0-.61-.08-.86-.23-.51-.3-.85-.84-.85-1.46v-.02c0-.7.41-1.3,1.01-1.57.22-.09.45-.15.7-.15.22,0,.43.04.62.12.14.05.26.12.37.2.37.26.63.66.7,1.12.02.09.03.18.03.28Z"/>
      <path class="cls-1" d="m15.39,47.68c0,.08,0,.16-.01.24,0,0,0,0-.01,0-.08.61-.49,1.11-1.04,1.33-.2.08-.42.13-.65.13-.95,0-1.72-.77-1.72-1.71v-.04c.01-.56.3-1.06.73-1.37.05-.03.1-.06.15-.09.25-.14.54-.22.84-.22.25,0,.49.06.7.15.14.06.27.14.38.24.39.31.63.79.63,1.33Z"/>
      <path class="cls-1" d="m44.48,26.84v.02c-.01.44-.18.84-.45,1.14-.12.13-.26.24-.41.32-.25.15-.55.24-.86.24-.12,0-.23-.02-.34-.04-.01,0-.02,0-.03-.01-.59-.13-1.08-.57-1.26-1.14-.05-.17-.08-.35-.08-.53v-.04c.01-.38.14-.74.37-1.02.13-.18.31-.32.5-.43.23-.13.48-.21.75-.22h.09c.08,0,.15,0,.23.01.5.07.94.35,1.2.76.18.27.29.59.29.94Z"/>
    </g>
  </g>
</svg>