<?xml version="1.0" encoding="UTF-8"?>
<svg id="Capa_2" data-name="Capa 2" xmlns="http://www.w3.org/2000/svg" viewBox="0 0 54.84 54.84">
  <defs>
    <style>
      .cls-1 {
        fill: #0c2340;
        stroke-width: 0px;
      }
    </style>
  </defs>
  <g id="IT_Support_Services" data-name="IT Support Services">
    <g id="_3-system-admin" data-name="3-system-admin">
      <path class="cls-1" d="m41.13,6.16H13.55c-4.09,0-7.41,3.32-7.41,7.42v2.12h8.42v-.05c0-2.26,1.84-4.1,4.1-4.1s4.1,1.84,4.1,4.1v.05h25.79v-2.12c0-4.1-3.32-7.42-7.42-7.42Zm.59,23.58v.05c0,2.26-1.84,4.1-4.1,4.1s-4.1-1.84-4.1-4.1v-.05H6.14v8.95h8.42v-.05c0-2.26,1.84-4.1,4.1-4.1s4.1,1.84,4.1,4.1v.05h25.79v-8.95h-6.82Zm-18.96,11.55c0,2.26-1.84,4.09-4.1,4.09s-4.1-1.84-4.1-4.09v-.05H6.14c.04,4.06,3.35,7.33,7.41,7.33h27.58c4.07,0,7.37-3.28,7.42-7.33h-25.79v.05Zm0-23.04v.05c0,2.26-1.84,4.1-4.1,4.1s-4.1-1.84-4.1-4.1v-.05H6.14v8.95h27.39v-.05c0-2.26,1.84-4.1,4.1-4.1s4.1,1.84,4.1,4.1v.05h6.82v-8.95h-25.79Z"/>
      <path class="cls-1" d="m20.21,18.3c0,.43-.17.82-.45,1.1-.28.28-.67.45-1.1.45-.85,0-1.55-.69-1.55-1.55v-2.65c0-.85.69-1.55,1.55-1.55s1.55.69,1.55,1.55v2.65Z"/>
      <g>
        <path class="cls-1" d="m39.18,29.79c0,.85-.69,1.55-1.55,1.55s-1.55-.69-1.55-1.55v-2.65c0-.85.69-1.55,1.55-1.55s1.55.69,1.55,1.55v2.65Z"/>
        <path class="cls-1" d="m39.18,27.14v2.65c0,.85-.69,1.55-1.55,1.55s-1.55-.69-1.55-1.55v-2.65c0-.85.69-1.55,1.55-1.55s1.55.69,1.55,1.55Z"/>
      </g>
      <g>
        <path class="cls-1" d="m20.21,41.29c0,.43-.17.82-.45,1.09-.28.28-.67.45-1.1.45-.85,0-1.55-.69-1.55-1.54v-2.65c0-.85.69-1.55,1.55-1.55s1.55.69,1.55,1.55v2.65Z"/>
        <path class="cls-1" d="m20.21,38.64v2.65c0,.43-.17.82-.45,1.09-.28.28-.67.45-1.1.45-.85,0-1.55-.69-1.55-1.54v-2.65c0-.85.69-1.55,1.55-1.55s1.55.69,1.55,1.55Z"/>
      </g>
      <path class="cls-1" d="m42.21,0H12.63C5.67,0,0,5.67,0,12.63v29.58c0,6.96,5.67,12.63,12.63,12.63h29.58c6.96,0,12.63-5.67,12.63-12.63V12.63c0-6.96-5.67-12.63-12.63-12.63Zm9.64,42.21c0,5.31-4.33,9.64-9.64,9.64H12.63c-5.31,0-9.64-4.33-9.64-9.64V12.63C2.99,7.32,7.32,2.99,12.63,2.99h29.58c5.31,0,9.64,4.33,9.64,9.64v29.58Z"/>
    </g>
  </g>
</svg>