<?xml version="1.0" encoding="UTF-8"?>
<svg id="Capa_2" data-name="Capa 2" xmlns="http://www.w3.org/2000/svg" viewBox="0 0 55.54 49.82">
  <defs>
    <style>
      .cls-1 {
        fill: #0c2340;
        stroke-width: 0px;
      }
    </style>
  </defs>
  <g id="IT_Support_Services" data-name="IT Support Services">
    <g id="_4-helpdesk" data-name="4-helpdesk">
      <g>
        <path class="cls-1" d="m43.11,0H4.36C1.95,0,0,1.94,0,4.35v7.07h47.47v-7.07c0-2.41-1.95-4.35-4.36-4.35ZM6.64,8.24c-1.4,0-2.53-1.13-2.53-2.53s1.13-2.53,2.53-2.53,2.53,1.13,2.53,2.53-1.13,2.53-2.53,2.53Zm8.04,0c-1.4,0-2.53-1.13-2.53-2.53s1.13-2.53,2.53-2.53,2.53,1.13,2.53,2.53-1.13,2.53-2.53,2.53Zm26.63-.46h-15.51c-1.14,0-2.07-.93-2.07-2.07s.93-2.07,2.07-2.07h15.51c1.14,0,2.07.93,2.07,2.07s-.93,2.07-2.07,2.07Z"/>
        <path class="cls-1" d="m47.47,13.91v10.12c-.05.02-.12.04-.17.05-.73.27-1.34.78-1.73,1.44-.1-.02-.21-.04-.3-.06-.1-.75-.46-1.45-1.03-1.97-.68-.62-1.6-.94-2.53-.86-1.02.1-2.03.29-3.08.62-1.36.44-2.27,1.7-2.27,3.11,0,.29.04.58.11.84-.08.06-.17.12-.25.18-.6-.46-1.36-.71-2.12-.68-.93.03-1.8.46-2.38,1.16-.65.77-1.22,1.62-1.71,2.55-.26.46-.39.98-.39,1.55,0,1.17.62,2.24,1.62,2.84-.02.12-.04.22-.06.33-.77.1-1.48.47-2,1.04-.62.69-.92,1.6-.83,2.46.08,1.02.28,2.02.61,3.09t0,.02H4.36C1.96,41.75,0,39.81,0,37.4V13.91h47.47Z"/>
      </g>
      <g>
        <path class="cls-1" d="m55.03,33.59c-.14-.44-.56-.71-1-.71-.13,0-.27.02-.38.07-.81.34-1.72,0-2.19-.75-.13-.22-.29-.45-.43-.66-.25-.33-.37-.71-.37-1.09,0-.45.17-.87.5-1.2.44-.44.4-1.14-.06-1.54-.68-.56-1.4-1.05-2.19-1.46-.54-.29-1.22-.04-1.46.53h0c-.34.81-1.2,1.2-2.05.99-.27-.05-.52-.12-.79-.15-.87-.13-1.53-.84-1.53-1.71,0-.62-.53-1.1-1.15-1.04-.88.08-1.75.26-2.59.52-.44.14-.72.55-.72,1,0,.12.02.25.08.39.34.81,0,1.71-.76,2.17-.23.14-.44.29-.65.45-.33.24-.71.36-1.1.36-.43,0-.87-.16-1.21-.49-.42-.44-1.13-.41-1.53.06-.56.67-1.05,1.41-1.46,2.19-.09.15-.12.31-.12.48,0,.41.24.8.64.98.8.34,1.2,1.2.99,2.04-.05.27-.12.54-.15.79-.13.87-.84,1.54-1.71,1.54-.62,0-1.11.53-1.04,1.13.07.9.25,1.75.51,2.59.14.45.56.72,1.02.72.12,0,.25,0,.39-.07.81-.34,1.7,0,2.17.75.14.23.29.46.44.66.24.33.37.71.37,1.1,0,.44-.17.87-.51,1.2-.43.43-.38,1.14.08,1.54.67.56,1.4,1.04,2.18,1.45.15.09.33.13.49.13.42,0,.8-.25.97-.66.34-.8,1.2-1.2,2.05-.99.26.06.53.12.8.16.86.13,1.53.84,1.53,1.72,0,.62.54,1.09,1.13,1.04.9-.08,1.77-.26,2.6-.52.46-.14.72-.55.72-1,0-.12-.02-.25-.07-.38-.34-.81,0-1.72.74-2.18.23-.14.45-.29.67-.44.33-.25.71-.37,1.09-.37.45,0,.87.16,1.2.5.44.43,1.15.4,1.54-.07.56-.67,1.05-1.41,1.45-2.19.29-.54.05-1.22-.52-1.46h0c-.8-.34-1.2-1.2-.99-2.04.06-.27.11-.54.16-.79.13-.87.84-1.53,1.72-1.53.61,0,1.08-.54,1.03-1.14-.07-.91-.25-1.77-.51-2.61Zm-11.97,11.79c-4.44,0-8.05-3.61-8.05-8.04s3.61-8.05,8.05-8.05,8.05,3.61,8.05,8.05-3.61,8.04-8.05,8.04Z"/>
        <path class="cls-1" d="m47.93,37.33c0,2.69-2.18,4.86-4.86,4.86s-4.86-2.17-4.86-4.86,2.18-4.86,4.86-4.86,4.86,2.18,4.86,4.86Z"/>
      </g>
    </g>
  </g>
</svg>