<?xml version="1.0" encoding="UTF-8"?>
<svg id="Capa_2" data-name="Capa 2" xmlns="http://www.w3.org/2000/svg" viewBox="0 0 452.81 104.19">
  <defs>
    <style>
      .cls-1 {
        fill: #00c756;
      }

      .cls-2 {
        fill: #a8adb0;
      }
    </style>
  </defs>
  <g id="logo_variation_of_color" data-name="logo variation of color">
    <g>
      <g>
        <path class="cls-1" d="m21.64,96.77c-1.12,4.45-5.13,7.42-9.52,7.42-.79,0-1.6-.09-2.4-.3-5.25-1.32-8.44-6.67-7.12-11.92,1.12-4.45,5.13-7.42,9.52-7.42.79,0,1.59.1,2.4.3,5.25,1.32,8.44,6.67,7.13,11.92Z"/>
        <path class="cls-2" d="m75.5,20.19l-47.95,22.52c-1.45.68-2.99,1.01-4.49,1.01-3.98,0-7.8-2.26-9.6-6.1-2.49-5.3-.21-11.61,5.09-14.09L66.5,1c1.46-.68,2.99-1,4.5-1,3.98,0,7.79,2.25,9.6,6.09,2.49,5.3.21,11.61-5.09,14.1Z"/>
        <path class="cls-2" d="m79.73,76.36l-37.35,17.49c-1.45.68-2.98,1-4.49,1-3.99,0-7.8-2.26-9.6-6.11-2.48-5.3-.19-11.61,5.1-14.09l37.35-17.48c1.45-.69,2.98-1,4.49-1,3.99,0,7.8,2.26,9.6,6.11,2.48,5.3.2,11.61-5.11,14.09Z"/>
        <path class="cls-2" d="m60.39,56.23l-45.3,21.19c-1.45.68-2.98,1-4.48,1-3.99,0-7.81-2.26-9.61-6.11-2.48-5.3-.19-11.61,5.11-14.09l45.3-21.19c1.45-.68,2.98-1,4.48-1,3.99,0,7.8,2.26,9.61,6.11,2.48,5.3.19,11.61-5.11,14.09Z"/>
      </g>
      <g id="emaya">
        <g id="m_const" data-name="m const">
          <polygon class="cls-2" points="241.73 95.08 234.15 95.08 229.78 50.12 210.74 92.33 204.57 92.33 185.53 50.12 181.16 95.08 173.58 95.08 179.04 38.89 188.74 38.89 207.65 80.85 226.57 38.89 236.27 38.89 241.73 95.08"/>
        </g>
        <g id="e">
          <polygon class="cls-2" points="146.42 89.31 146.42 94.85 109.69 94.85 109.69 38.66 145.97 38.66 145.97 44.21 117.23 44.21 117.23 63.34 145.46 63.34 145.46 68.89 117.23 68.89 117.23 89.31 146.42 89.31"/>
        </g>
        <path class="cls-2" d="m301.83,38.89h-4.74l-27.58,56.19h8.4l9.56-19.48h24l9.56,19.48h8.4s-27.58-56.19-27.58-56.19Zm-11.64,31.16l9.27-18.88,9.27,18.88h-18.54Z"/>
        <polygon class="cls-2" points="386.25 38.89 377.24 38.89 361.1 63.6 344.96 38.89 335.95 38.89 356.73 70.69 356.73 95.08 365.41 95.08 365.41 70.78 386.25 38.89"/>
        <path class="cls-2" d="m425.23,38.89h-4.74l-27.58,56.19h8.4l9.56-19.48h24s9.56,19.48,9.56,19.48h8.4l-27.58-56.19Zm-11.64,31.16l9.27-18.88,9.27,18.88h-18.54Z"/>
      </g>
    </g>
  </g>
</svg>