<?xml version="1.0" encoding="UTF-8"?>
<svg id="Capa_2" data-name="Capa 2" xmlns="http://www.w3.org/2000/svg" viewBox="0 0 50.5 52.49">
  <defs>
    <style>
      .cls-1 {
        fill: #0c2340;
      }
    </style>
  </defs>
  <g id="Contact_Center_Services" data-name="Contact Center Services">
    <path id="_1voice" data-name="1voice" class="cls-1" d="m50.5,24.73v8.37c0,1.33-1.08,2.41-2.41,2.41h-.78c-.07,0-.13.06-.12.13l.05,2.91s0,.01,0,.02l-.39,2.85c-.87,6.31-6.33,11.07-12.7,11.07h-11.37c-1.79,0-3.25-1.46-3.25-3.26,0-.9.36-1.71.95-2.3s1.41-.95,2.3-.95h3.62c1.87,0,3.39,1.52,3.39,3.39h0c0,.07.06.13.12.13h4.24c4.88,0,9.06-3.65,9.73-8.48l.31-2.27c.01-.08-.05-.14-.12-.14h-1.73c-1.46,0-2.65-1.2-2.65-2.65v-14.07c0-1.53,1.25-2.78,2.78-2.78h.33c.07,0,.13-.06.13-.13-.2-8.29-6.99-14.98-15.3-14.98h-4.28c-8.32,0-15.11,6.69-15.31,14.98,0,.07.06.13.13.13h.33c1.53,0,2.77,1.25,2.77,2.77v14.07c0,1.45-1.19,2.65-2.65,2.65h-1.57c-1.47,0-2.66-1.18-2.69-2.64v-.47c-.11.01-.21.02-.31.02h-1.66c-1.33,0-2.4-1.08-2.4-2.4v-8.37c0-1.33,1.08-2.41,2.41-2.41h1.57c.07,0,.13-.06.12-.13l-.06-3.07C4.16,8.56,12.78,0,23.35,0h4.28c10.57,0,19.18,8.56,19.3,19.13l.05,3.08c0,.07.06.12.12.12h.99c1.33,0,2.41,1.08,2.41,2.41Z"/>
  </g>
</svg>