<?xml version="1.0" encoding="utf-8"?>
<!-- Generator: Adobe Illustrator 27.8.1, SVG Export Plug-In . SVG Version: 6.00 Build 0)  -->
<svg version="1.1" id="Capa_2_00000080910141790473311420000006411868661189626780_"
	 xmlns="http://www.w3.org/2000/svg" xmlns:xlink="http://www.w3.org/1999/xlink" x="0px" y="0px" viewBox="0 0 53.4 40.2"
	 style="enable-background:new 0 0 53.4 40.2;" xml:space="preserve">
<style type="text/css">
	.st0{display:none;}
	.st1{display:inline;fill:#0C2340;}
	.st2{fill:#0C2340;}
</style>
<g id="Contact_Center_Services" class="st0">
	<path id="_2email" class="st1" d="M48.6,0H4.9C2.2,0,0,2.2,0,4.9v30.5c0,2.7,2.2,4.9,4.9,4.9h43.7c2.7,0,4.9-2.2,4.9-4.9V4.9
		C53.4,2.2,51.3,0,48.6,0z M14.6,26.8l-8.4,8.4c-0.2,0.2-0.4,0.3-0.7,0.3S5,35.4,4.8,35.2c-0.4-0.4-0.4-1,0-1.4l8.4-8.4
		c0.4-0.4,1-0.4,1.4,0C15,25.8,15,26.5,14.6,26.8z M48.6,35.2c-0.2,0.2-0.5,0.3-0.7,0.3s-0.5-0.1-0.7-0.3l-8.4-8.4
		c-0.4-0.4-0.4-1,0-1.4s1-0.4,1.4,0l8.4,8.4C49,34.2,49,34.8,48.6,35.2z M48.6,13L30.2,25.5c-1.1,0.7-2.3,1.1-3.5,1.1
		s-2.4-0.4-3.5-1.1L4.8,13c-1.1-0.8-1.4-2.3-0.7-3.5s2.3-1.4,3.5-0.7l18.4,12.5c0.4,0.3,0.9,0.3,1.3,0L45.8,8.9
		c1.1-0.8,2.7-0.5,3.5,0.7C50.1,10.7,49.8,12.2,48.6,13z"/>
</g>
<g id="Contact_Center_Services_00000129206845795807278130000000108899449300829576_">
	<path class="st2" d="M48.6,0H4.9C2.2,0,0,2.2,0,4.9v30.5c0,2.7,2.2,4.9,4.9,4.9h43.7c2.7,0,4.9-2.2,4.9-4.9V4.9
		C53.4,2.2,51.3,0,48.6,0z M47.6,13L30,25.5c-1,0.7-2.2,1.1-3.3,1.1c-1.2,0-2.3-0.4-3.3-1.1L5.9,13c-1.1-0.8-1.4-2.3-0.6-3.5
		C6,8.4,7.5,8.1,8.6,8.9l17.5,12.5c0.4,0.3,0.9,0.3,1.3,0L44.9,8.9c1.1-0.8,2.6-0.5,3.3,0.7C48.9,10.7,48.6,12.2,47.6,13z"/>
</g>
</svg>
