<?xml version="1.0" encoding="UTF-8"?>
<svg id="Capa_2" data-name="Capa 2" xmlns="http://www.w3.org/2000/svg" viewBox="0 0 61.68 54.84">
  <defs>
    <style>
      .cls-1 {
        fill: #0c2340;
      }
    </style>
  </defs>
  <g id="Contact_Center_Services" data-name="Contact Center Services">
    <g id="_3chat-support" data-name="3chat-support">
      <path class="cls-1" d="m38.14,49.42c-4.03,3.38-9.24,5.42-14.91,5.42-3.67,0-7.14-.85-10.23-2.37-.02.03-.04.04-.06.05-1.54.88-3.74,1.84-6.52,2.19-1.25.16-2.41.16-3.4.08-.69-.06-1.12-.77-.83-1.4.51-1.12,1-2.4,1.43-3.84.42-1.48.7-2.85.88-4.09,0-.03,0-.06.02-.08-2.84-3.85-4.52-8.61-4.52-13.75C0,21.28,6.77,12.51,16.12,9.51c-2.47,3.98-3.88,8.68-3.88,13.71,0,14.37,11.57,26.03,25.9,26.2Z"/>
      <path class="cls-1" d="m38.45,13.51c-5.37,0-9.72,4.35-9.72,9.72s4.36,9.71,9.72,9.71,9.72-4.35,9.72-9.71-4.36-9.72-9.72-9.72Zm0,15.59c-3.23,0-5.87-2.62-5.87-5.87s2.63-5.87,5.87-5.87,5.87,2.63,5.87,5.87-2.63,5.87-5.87,5.87Z"/>
      <path class="cls-1" d="m58.12,41.15c-.04-.15-.09-.32-.12-.48-.36-1.29-.6-2.5-.75-3.61,0-.06-.02-.1-.04-.15,3.12-4.25,4.82-9.62,4.41-15.39C60.78,9.79,51.02.41,39.26.01c-7.59-.25-14.41,3.14-18.82,8.56-3.94,4.82-5.97,11.27-4.95,18.19,1.81,12.27,13.31,21.05,25.62,19.53.05-.01.09-.02.14-.02,2.66-.3,5.18-1.08,7.47-2.21.03.03.05.04.07.06.89.51,2.01,1.05,3.32,1.47.97.32,2.04.58,3.21.73,1.26.15,2.4.15,3.39.08.7-.05,1.12-.76.84-1.4-.5-1.12-1-2.4-1.43-3.85Zm-5.84-17.93c-1.06,0-1.91.8-2.08,1.85-.06.31-.12.64-.2.96-.24,1.01.23,2.06,1.2,2.47h.01c.69.29.98,1.11.63,1.77-.49.94-1.08,1.83-1.76,2.64-.47.57-1.33.61-1.85.09-.4-.41-.92-.61-1.46-.61-.45,0-.92.15-1.32.44-.27.19-.52.36-.8.54-.9.55-1.31,1.64-.9,2.62.07.16.09.33.09.48,0,.54-.34,1.03-.89,1.2-1,.31-2.04.52-3.13.63-.73.06-1.38-.51-1.38-1.26,0-1.06-.8-1.91-1.84-2.08-.34-.06-.65-.12-.98-.2-1.01-.24-2.06.23-2.47,1.2-.2.5-.68.79-1.18.79-.2,0-.41-.05-.59-.15-.94-.5-1.82-1.08-2.64-1.76-.56-.48-.61-1.34-.08-1.85.41-.41.61-.93.61-1.46,0-.47-.15-.93-.44-1.33-.19-.26-.36-.52-.52-.79-.56-.9-1.64-1.32-2.62-.91-.16.07-.33.09-.48.09-.55,0-1.05-.34-1.22-.89-.31-1-.52-2.04-.62-3.13-.07-.73.51-1.38,1.26-1.38,1.06,0,1.91-.8,2.08-1.85.05-.31.12-.64.19-.96.24-1.01-.23-2.06-1.2-2.47-.49-.21-.78-.69-.78-1.19,0-.2.05-.4.14-.58.5-.94,1.1-1.83,1.77-2.64.48-.57,1.34-.61,1.85-.08.41.4.93.59,1.46.59.47,0,.93-.14,1.33-.43.26-.19.51-.36.79-.54.91-.55,1.32-1.64.91-2.62-.07-.16-.09-.33-.09-.48,0-.54.34-1.03.87-1.2,1-.31,2.05-.52,3.13-.63.75-.06,1.39.51,1.39,1.26,0,1.06.79,1.91,1.84,2.08.33.05.64.12.96.19,1.03.24,2.08-.22,2.48-1.19h0c.29-.7,1.11-.99,1.77-.65.94.5,1.82,1.1,2.64,1.77.56.47.61,1.33.08,1.85-.4.4-.61.92-.61,1.46,0,.45.15.92.44,1.32.19.26.36.52.52.79.56.91,1.66,1.32,2.64.91.15-.07.31-.09.48-.09.52,0,1.03.34,1.2.87.31,1,.52,2.05.62,3.14.07.73-.51,1.38-1.25,1.38Z"/>
    </g>
  </g>
</svg>