<?xml version="1.0" encoding="UTF-8"?>
<svg id="Capa_2" data-name="Capa 2" xmlns="http://www.w3.org/2000/svg" viewBox="0 0 46.97 55.62">
  <defs>
    <style>
      .cls-1 {
        fill: #0c2340;
      }
    </style>
  </defs>
  <g id="Contact_Center_Services" data-name="Contact Center Services">
    <g id="_4social-media" data-name="4social-media">
      <rect class="cls-1" x="15.58" y="6.11" width="5.4" height="2.58" rx="1.29" ry="1.29" transform="translate(6.15 -8.15) rotate(30)"/>
      <rect class="cls-1" x="30.72" y="6.11" width="5.4" height="2.58" rx="1.29" ry="1.29" transform="translate(66.07 -2.91) rotate(150)"/>
      <rect class="cls-1" x="23.15" y="1.41" width="5.4" height="2.58" rx="1.29" ry="1.29" transform="translate(28.55 -23.15) rotate(90)"/>
      <g>
        <g>
          <path class="cls-1" d="m13.65,30.89c.7-.75,1.41-1.5,2.11-2.25,3.33-4.97,5.48-9.1,6.24-11.32.47-1.37.77-2.06.78-2.89.01-1.17.01-2.36.34-3.51.11-.42.35-.83.61-1.22.37-.54.98-.62,1.56-.58.99.06,1.91.37,2.75.93,1.36.93,2.19,2.24,2.55,3.83.14.67.24,1.34.23,2.02-.07,2.24-1.2,6.58-1.2,6.65l-.98,3.23c-.1.5.02.78.12.93.43.61,1.53.31,5.47-.16.89-.1,1.79-.2,2.99-.22.38,0,.98-.01,1.71.04.56.04,1.98.14,3.55.61,1.77.53,3.03.9,3.81,1.88.98,1.24.75,2.88.36,5.15-.89,5.26-1.33,7.89-1.92,9.87-2.77,9.33-5.01,10.24-5.46,10.38-.18.06-2.14.64-2.14.64-.79.18-1.46.27-2.75.45-.86.13-1.59.24-1.9.24-4.06,0-8.12.06-12.18.01,0,0-4.26-.21-6.11-1.63-.61-.47-.99-1.06-.99-1.06-.43-.66-.62-.88-.62-1.53v-10.11c0-1.83.01-3.95,0-7.66.05-.33.14-.72.28-1.15.23-.67.54-1.2.8-1.58Z"/>
          <path class="cls-1" d="m13.12,32.14c-.13.14-.24.3-.31.47.03-.2.13-.33.31-.47Z"/>
        </g>
        <path class="cls-1" d="m0,42.83c0-3.46-.01-6.93,0-10.39,0-1.02.9-1.78,2.31-1.81,1.49-.03,2.98,0,4.47,0,1.77,0,2.77.79,2.77,2.2,0,4.4,0,8.8,0,13.2,0,2.27-.02,4.53,0,6.8.02,1.22-1.08,2.2-2.71,2.14-1.58-.05-3.17-.04-4.75-.02C1.19,54.95,0,54.02,0,53.22c.03-3.46.01-6.93.01-10.39,0,0,0,0,0,0Z"/>
      </g>
    </g>
  </g>
</svg>