<?xml version="1.0" encoding="UTF-8"?>
<svg id="Capa_2" data-name="Capa 2" xmlns="http://www.w3.org/2000/svg" viewBox="0 0 47.82 47.78">
  <defs>
    <style>
      .cls-1 {
        fill: #0c2340;
      }
    </style>
  </defs>
  <g id="Contact_Center_Services" data-name="Contact Center Services">
    <g id="_7customer" data-name="7customer">
      <g>
        <circle class="cls-1" cx="8.75" cy="11" r="4.93"/>
        <path class="cls-1" d="m12.79,19.83c-1.8,2.37-2.87,5.33-2.87,8.54v13.16H2.32c-1.28,0-2.32-1.04-2.32-2.32v-11.63c0-4.83,3.92-8.75,8.75-8.75,1.46,0,2.83.36,4.04.99Z"/>
      </g>
      <g>
        <circle class="cls-1" cx="39.07" cy="11" r="4.93"/>
        <path class="cls-1" d="m47.82,27.58v11.63c0,1.28-1.04,2.32-2.32,2.32h-7.33v-13.16c0-3.25-1.1-6.25-2.95-8.64,1.16-.57,2.47-.89,3.85-.89,2.42,0,4.61.98,6.19,2.57,1.58,1.58,2.57,3.77,2.57,6.18Z"/>
      </g>
      <g>
        <circle class="cls-1" cx="24.05" cy="7.68" r="7.68"/>
        <path class="cls-1" d="m35.79,29.07v15.59c0,1.72-1.39,3.12-3.12,3.12H15.42c-1.72,0-3.11-1.39-3.11-3.12v-15.59c0-2.88,1.03-5.51,2.74-7.55,2.16-2.57,5.38-4.19,8.99-4.19,3.24,0,6.18,1.31,8.31,3.44.19.19.38.4.56.6,1.8,2.07,2.88,4.76,2.88,7.7Z"/>
      </g>
    </g>
  </g>
</svg>